<svg id="Capa_1" data-name="Capa 1" xmlns="http://www.w3.org/2000/svg" viewBox="0 0 662.168 476.638">
  <defs>
    <style>
      .cls-1 {
        fill: #0090bc;
      }

      .cls-2 {
        fill: #453678;
      }
    </style>
  </defs>
  <title>ahora-12-seeklogo.com</title>
  <g>
    <g>
      <path class="cls-1" d="M90.568,539.621l33.128-92.45h30.816l33.128,92.45H157.466l-3.6-12.2H123.7l-3.467,12.2Zm48.279-64.587-9.374,33.128h19.132Z" transform="translate(-90.568 -65.422)"/>
      <path class="cls-1" d="M194.7,539.621v-92.45h30.3v31.074h28.634V447.171h30.3v92.45h-30.3V503.668H225.005v35.953Z" transform="translate(-90.568 -65.422)"/>
      <path class="cls-1" d="M391.543,492.946q0,22.827-13.675,35.972t-34.861,13.143q-22.086,0-35.246-13.015T294.6,492.692q0-21.671,13.353-34.751t35.054-13.081q23.368,0,35.953,14.105T391.543,492.946Zm-66.641,0a39.776,39.776,0,0,0,4.109,18.636q4.108,7.879,14,7.877,9.245,0,13.739-7.173t4.494-19.34q0-10.5-4.622-18t-13.868-7.493q-9.374,0-13.611,7.622A36.182,36.182,0,0,0,324.9,492.949Z" transform="translate(-90.568 -65.422)"/>
      <path class="cls-1" d="M431.475,507.392v32.229h-30.3v-92.45h43.657q22.468,0,31.716,6.228t9.245,20.1a25.836,25.836,0,0,1-3.916,14.381,19.644,19.644,0,0,1-11.621,8.218q8.731,3.211,12.2,7.512t3.467,17.013v10.4q.256,5.777,3.21,5.777v2.825H458.439q-1.541-4.107-1.541-16.179,0-9.63-2.889-12.84t-13.29-3.211Zm0-20.287h11.941q7.189,0,10.786-1.99t3.6-6.741a8.321,8.321,0,0,0-3.4-7.126,14.465,14.465,0,0,0-8.8-2.5H431.475Z" transform="translate(-90.568 -65.422)"/>
      <path class="cls-1" d="M491.439,539.621l33.128-92.45h30.816l33.128,92.45H558.336l-3.6-12.2H524.567l-3.467,12.2Zm48.279-64.587-9.374,33.128h19.132Z" transform="translate(-90.568 -65.422)"/>
      <path class="cls-1" d="M662.344,539.621H635.634V486.848H614.706V468.614q11.3,0,18.233-4.751t9.117-16.05h20.288Z" transform="translate(-90.568 -65.422)"/>
      <path class="cls-1" d="M676.338,539.621a34.507,34.507,0,0,1,2.633-13.8,38.236,38.236,0,0,1,7.51-11.234q4.881-5.134,22.215-17.014t17.334-20.608a7.926,7.926,0,0,0-3.273-6.613,12.232,12.232,0,0,0-7.641-2.5q-7.063,0-10.08,4.88t-3.018,12.455H678.006q0-19.261,10.016-28.313t28.377-9.052q15.536,0,25.937,7.19t10.4,22.085q0,12.457-7.06,18.1a140.575,140.575,0,0,1-13.8,9.823q-6.741,4.175-12.969,7.7t-8.41,5.072H752.48v21.828Z" transform="translate(-90.568 -65.422)"/>
    </g>
    <g>
      <path class="cls-2" d="M475.843,273.252h-9.857V253.776h-7.722v-6.727A11.715,11.715,0,0,0,465,245.3q2.555-1.755,3.361-5.923h7.485Z" transform="translate(-90.568 -65.422)"/>
      <path class="cls-2" d="M479.154,273.252a12.746,12.746,0,0,1,.97-5.095,14.175,14.175,0,0,1,2.773-4.146,60.8,60.8,0,0,1,8.2-6.278q6.4-4.38,6.4-7.6a2.917,2.917,0,0,0-1.207-2.439,4.5,4.5,0,0,0-2.82-.923,4.038,4.038,0,0,0-3.722,1.8,8.624,8.624,0,0,0-1.112,4.594h-8.86q0-7.1,3.7-10.446t10.471-3.34a16.436,16.436,0,0,1,9.57,2.652q3.838,2.653,3.837,8.149,0,4.6-2.607,6.682a52.313,52.313,0,0,1-5.089,3.627q-2.5,1.538-4.792,2.842t-3.1,1.871h15.495v8.056Z" transform="translate(-90.568 -65.422)"/>
    </g>
    <path class="cls-1" d="M418.4,65.422a163.4,163.4,0,1,0,163.4,163.4A163.4,163.4,0,0,0,418.4,65.422Zm0,299.8a136.4,136.4,0,1,1,136.4-136.4A136.4,136.4,0,0,1,418.4,365.227Z" transform="translate(-90.568 -65.422)"/>
    <path class="cls-2" d="M424.1,340.74s-85.066,4.051-93.169-98.913c0,0-6.078-66.837,13.5-66.162,0,0,8.439-1.69,6.078,16.878,0,0-2.362,24.642-1.35,33.08,0,0-.087,3.8,3.458,3.8,3.163,0,3.038-3.545,3.038-3.545l.759-30.129s-.759-49.115,19.748-49.115c0,0,9.621,0,5.57,23.04,0,0-3.8,25.823-2.786,30.634,0,0-.252,3.545,3.292,3.545s3.291-4.558,3.291-4.558,3.038-53.421,21.267-73.168c0,0,9.935-13.953,20.256-7.343,8.1,5.19,1.771,17.216,1.771,17.216a177.74,177.74,0,0,0-15.7,44.813s-1.14,4.176,1.519,5.7c3.354,1.918,7.342-.379,7.342-.379S439.963,176,463,187.648s23.544,27.85,23.925,33.674c0,0,.762,10-6.2,11.772-7.647,1.946-9.365-6.963-9.365-6.963s-5.823-22.163-30.635-22.278c-26.835-.128-32.913,21.772-32.913,21.772s-13.753,47.092,5.488,74.434c0,0,7.088,11.313,28.185,10.637,24.544-.785,30.382-24.055,30.382-24.055s1.1-10.294,10.972-9.027,7.258,16.877,7.258,16.877S482.925,343.188,424.1,340.74Z" transform="translate(-90.568 -65.422)"/>
    <path class="cls-1" d="M424.164,256.382q0,15.1,3.608,26.146t12.281,11.05q8.109,0,12.054-10.062t3.947-27.134q0-14.735-4.056-25.247t-12.17-10.512q-8.228,0-11.945,10.692T424.164,256.382Z" transform="translate(-90.568 -65.422)"/>
  </g>
</svg>
